<?xml version="1.0" encoding="UTF-8" standalone="no"?>
<!-- Created with Inkscape (http://www.inkscape.org/) -->

<svg
   xmlns:dc="http://purl.org/dc/elements/1.1/"
   xmlns:cc="http://creativecommons.org/ns#"
   xmlns:rdf="http://www.w3.org/1999/02/22-rdf-syntax-ns#"
   xmlns:svg="http://www.w3.org/2000/svg"
   xmlns="http://www.w3.org/2000/svg"
   xmlns:sodipodi="http://sodipodi.sourceforge.net/DTD/sodipodi-0.dtd"
   xmlns:inkscape="http://www.inkscape.org/namespaces/inkscape"
   version="1.1"
   id="svg1423"
   xml:space="preserve"
   width="853.64038"
   height="164.12267"
   viewBox="0 0 853.64038 164.12267"
   sodipodi:docname="MAGFEST_logo_centered_final.svg"
   inkscape:version="0.92.2 (5c3e80d, 2017-08-06)"><metadata
     id="metadata1429"><rdf:RDF><cc:Work
         rdf:about=""><dc:format>image/svg+xml</dc:format><dc:type
           rdf:resource="http://purl.org/dc/dcmitype/StillImage" /><dc:title></dc:title></cc:Work></rdf:RDF></metadata><defs
     id="defs1427" /><sodipodi:namedview
     pagecolor="#ffffff"
     bordercolor="#666666"
     borderopacity="1"
     objecttolerance="10"
     gridtolerance="10"
     guidetolerance="10"
     inkscape:pageopacity="0"
     inkscape:pageshadow="2"
     inkscape:window-width="1857"
     inkscape:window-height="1057"
     id="namedview1425"
     showgrid="false"
     inkscape:zoom="1.4488636"
     inkscape:cx="456.51477"
     inkscape:cy="-0.52875774"
     inkscape:window-x="55"
     inkscape:window-y="-8"
     inkscape:window-maximized="1"
     inkscape:current-layer="g1431"
     fit-margin-top="0"
     fit-margin-left="0"
     fit-margin-right="0"
     fit-margin-bottom="0" /><g
     id="g1431"
     inkscape:groupmode="layer"
     inkscape:label="ink_ext_XXXXXX"
     transform="matrix(1.3333333,0,0,-1.3333333,-42.418266,211.36533)"><path
       inkscape:connector-curvature="0"
       id="path1437"
       style="fill:#100f0d;fill-opacity:1;fill-rule:nonzero;stroke:none;stroke-width:0.1"
       d="M 91.6098,100.07 V 155.474 C 91.6098,157.159 90.2441,158.524 88.559,158.524 H 77.6023 C 75.918,158.524 74.552,157.159 74.552,155.474 V 100.07 H 91.6098" /><path
       inkscape:connector-curvature="0"
       id="path1439"
       style="fill:#100f0d;fill-opacity:1;fill-rule:nonzero;stroke:none;stroke-width:0.1"
       d="M 131.568,83.3309 H 109.989 C 109.989,83.3309 109.989,86.1238 109.989,89.6801 116.167,92.4109 124.641,92.4641 131.568,89.6801 131.568,87.6141 131.568,83.3309 131.568,83.3309" /><path
       inkscape:connector-curvature="0"
       id="path1441"
       style="fill:#100f0d;fill-opacity:1;fill-rule:nonzero;stroke:none;stroke-width:0.1"
       d="M 68.2516,98.4988 C 67.0816,98.4988 66.1328,97.5508 66.1328,96.3805 66.1328,95.2094 67.0816,94.2621 68.2516,94.2621 H 97.9105 C 99.0801,94.2621 100.029,95.2094 100.029,96.3805 100.029,97.5508 99.0801,98.4988 97.9105,98.4988 H 68.2516" /><path
       inkscape:connector-curvature="0"
       id="path1443"
       style="fill:#100f0d;fill-opacity:1;fill-rule:nonzero;stroke:none;stroke-width:0.1"
       d="M 64.8617,92.9922 C 63.6918,92.9922 62.7434,92.0422 62.7434,90.873 62.7434,89.702 63.6918,88.7531 64.8617,88.7531 H 101.3 C 102.47,88.7531 103.418,89.702 103.418,90.873 103.418,92.0422 102.47,92.9922 101.3,92.9922 H 64.8617" /><path
       inkscape:connector-curvature="0"
       id="path1445"
       style="fill:#100f0d;fill-opacity:1;fill-rule:nonzero;stroke:none;stroke-width:0.1"
       d="M 61.8961,87.4832 C 60.7262,87.4832 59.7773,86.5352 59.7773,85.3641 59.7773,84.1941 60.7262,83.2461 61.8961,83.2461 H 104.266 C 105.436,83.2461 106.384,84.1941 106.384,85.3641 106.384,86.5352 105.436,87.4832 104.266,87.4832 H 61.8961" /><path
       inkscape:connector-curvature="0"
       id="path1447"
       style="fill:#100f0d;fill-opacity:1;fill-rule:nonzero;stroke:none;stroke-width:0.1"
       d="M 541.917,114.753 C 541.917,112.456 541.917,81.0359 541.917,78.7391 544.042,78.7391 559.637,78.7391 561.762,78.7391 561.762,81.0359 561.762,112.456 561.762,114.753 559.637,114.753 544.042,114.753 541.917,114.753" /><path
       inkscape:connector-curvature="0"
       id="path1449"
       style="fill:#100f0d;fill-opacity:1;fill-rule:nonzero;stroke:none;stroke-width:0.1"
       d="M 615.289,124.41 C 614.295,123.416 614.295,121.807 615.289,120.815 621.702,114.4 625.092,106.551 625.092,98.1148 625.092,89.4609 621.427,80.6309 615.289,74.491 614.295,73.5 614.295,71.8891 615.289,70.8949 616.279,69.902 617.89,69.902 618.883,70.8949 625.956,77.9672 630.177,88.143 630.177,98.1148 630.177,107.929 626.271,117.022 618.883,124.41 617.89,125.403 616.279,125.403 615.289,124.41" /><path
       inkscape:connector-curvature="0"
       id="path1451"
       style="fill:#100f0d;fill-opacity:1;fill-rule:nonzero;stroke:none;stroke-width:0.1"
       d="M 630.891,135.805 C 629.898,134.813 629.898,133.202 630.891,132.209 652.519,110.579 647.875,80.0828 630.891,63.0969 629.898,62.1031 629.898,60.4949 630.891,59.502 631.883,58.509 633.492,58.509 634.486,59.502 653.238,78.2559 658.366,111.924 634.486,135.804 633.492,136.797 631.882,136.797 630.891,135.805" /><path
       inkscape:connector-curvature="0"
       id="path1453"
       style="fill:#100f0d;fill-opacity:1;fill-rule:nonzero;stroke:none;stroke-width:0.1"
       d="M 645.458,152.082 C 644.465,151.09 644.465,149.48 645.458,148.487 659.525,134.421 666.959,117.18 666.959,98.6262 666.959,79.6488 658.922,60.282 645.458,46.8172 644.465,45.8262 644.465,44.2148 645.458,43.223 646.452,42.2301 648.062,42.2301 649.053,43.223 663.45,57.618 672.044,78.3309 672.044,98.6262 672.044,118.558 664.095,137.042 649.053,152.082 648.062,153.075 646.452,153.075 645.458,152.082" /><path
       inkscape:connector-curvature="0"
       id="path1455"
       style="fill:#100f0d;fill-opacity:1;fill-rule:nonzero;stroke:none;stroke-width:0.1"
       d="M 134.349,38.7039 C 134.349,37.0172 132.983,35.6531 131.298,35.6531 H 34.8637 C 33.1793,35.6531 31.8137,37.0172 31.8137,38.7039 V 78.4832 C 31.8137,80.1672 33.1793,81.5328 34.8637,81.5328 H 131.298 C 132.983,81.5328 134.349,80.1672 134.349,78.4832 V 38.7039" /><path
       inkscape:connector-curvature="0"
       id="path1457"
       style="fill:#100f0d;fill-opacity:1;fill-rule:nonzero;stroke:none;stroke-width:0.1"
       d="M 183.513,40.6281 C 183.513,39.6512 183.208,38.8969 182.599,38.3621 181.99,37.8289 181.258,37.5609 180.406,37.5609 179.582,37.5609 178.867,37.8281 178.258,38.3621 177.647,38.8949 177.343,39.6488 177.343,40.6262 V 49.634 L 170.71,38.9719 C 169.918,37.7141 169.033,37.084 168.057,37.084 167.11,37.084 166.242,37.7109 165.449,38.9621 L 158.806,49.634 V 40.6262 C 158.806,39.6488 158.501,38.8949 157.892,38.3621 157.282,37.8281 156.552,37.5609 155.699,37.5609 154.875,37.5609 154.16,37.8289 153.55,38.3621 152.941,38.8969 152.636,39.6512 152.636,40.6281 V 60.3941 C 152.636,61.491 152.91,62.3621 153.459,63.002 154.007,63.6422 154.663,63.9621 155.425,63.9621 156.583,63.9621 157.558,63.3191 158.351,62.0332 L 168.062,46.4469 177.852,62.034 C 178.643,63.3211 179.601,63.9621 180.729,63.9621 181.489,63.9621 182.144,63.6422 182.691,63.002 183.239,62.3621 183.513,61.491 183.513,60.3941 V 40.6281" /><path
       inkscape:connector-curvature="0"
       id="path1459"
       style="fill:#100f0d;fill-opacity:1;fill-rule:nonzero;stroke:none;stroke-width:0.1"
       d="M 227.173,49.875 H 232.941 L 230.063,54.5449 Z M 236.167,44.4191 H 223.995 L 220.381,38.9211 C 219.74,37.9449 218.886,37.4551 217.818,37.4551 216.965,37.4551 216.216,37.752 215.576,38.3488 214.936,38.9422 214.615,39.6672 214.615,40.5219 214.615,41.102 214.783,41.6672 215.118,42.216 L 225.963,59.7469 C 227.367,62.0109 228.74,63.1422 230.082,63.1422 230.997,63.1422 231.82,62.791 232.553,62.0891 233.011,61.6629 233.589,60.884 234.291,59.7539 L 245.091,42.2211 C 245.426,41.666 245.594,41.0941 245.594,40.5078 245.594,39.6441 245.266,38.9199 244.61,38.3328 243.954,37.748 243.214,37.4551 242.392,37.4551 241.323,37.4551 240.469,37.9309 239.829,38.8852 L 236.167,44.4191" /><path
       inkscape:connector-curvature="0"
       id="path1461"
       style="fill:#100f0d;fill-opacity:1;fill-rule:nonzero;stroke:none;stroke-width:0.1"
       d="M 306.543,40.6199 C 306.543,38.5449 305.522,37.507 303.477,37.507 H 278.76 C 276.716,37.507 275.693,38.5449 275.693,40.6219 V 60.3988 C 275.693,62.4738 276.714,63.5109 278.756,63.5109 H 303.436 C 304.411,63.5109 305.172,63.207 305.721,62.5969 306.271,61.9891 306.543,61.2539 306.543,60.4012 306.543,59.5461 306.271,58.8148 305.722,58.2059 305.174,57.5949 304.413,57.2891 303.438,57.2891 H 281.837 V 43.7309 H 300.4 V 47.3852 H 291.113 C 290.137,47.3852 289.375,47.691 288.827,48.3 288.277,48.9121 288.002,49.6422 288.002,50.4969 288.002,51.35 288.277,52.0828 288.827,52.693 289.375,53.3031 290.139,53.6082 291.116,53.6082 H 306.543 V 40.6199" /><path
       inkscape:connector-curvature="0"
       id="path1463"
       style="fill:#100f0d;fill-opacity:1;fill-rule:nonzero;stroke:none;stroke-width:0.1"
       d="M 369.622,47.3852 H 347.988 V 40.623 C 347.988,39.648 347.682,38.8941 347.071,38.3609 346.458,37.8281 345.74,37.5609 344.917,37.5609 344.09,37.5609 343.373,37.8289 342.761,38.3621 342.148,38.8969 341.845,39.6512 341.845,40.6281 V 60.4012 C 341.845,62.4738 342.866,63.5109 344.909,63.5109 H 369.62 C 370.595,63.5109 371.359,63.207 371.909,62.5969 372.457,61.9891 372.731,61.2539 372.731,60.4012 372.731,59.5461 372.457,58.8148 371.909,58.2059 371.359,57.5949 370.597,57.2891 369.622,57.2891 H 347.988 V 53.6082 H 369.622 C 370.597,53.6082 371.359,53.3031 371.909,52.693 372.457,52.0828 372.731,51.35 372.731,50.4969 372.731,49.6422 372.457,48.9121 371.909,48.3 371.359,47.691 370.597,47.3852 369.622,47.3852" /><path
       inkscape:connector-curvature="0"
       id="path1465"
       style="fill:#100f0d;fill-opacity:1;fill-rule:nonzero;stroke:none;stroke-width:0.1"
       d="M 434.123,37.507 H 409.413 C 407.369,37.507 406.348,38.5449 406.348,40.6219 V 60.3988 C 406.348,62.4738 407.369,63.5109 409.413,63.5109 H 434.123 C 435.1,63.5109 435.862,63.207 436.412,62.5969 436.959,61.9891 437.234,61.2539 437.234,60.4012 437.234,59.5461 436.959,58.8148 436.412,58.2059 435.862,57.5949 435.101,57.2891 434.125,57.2891 H 412.492 V 53.6082 H 434.125 C 435.101,53.6082 435.862,53.3031 436.412,52.693 436.959,52.0828 437.234,51.35 437.234,50.4969 437.234,49.6422 436.959,48.9121 436.412,48.3 435.862,47.691 435.101,47.3852 434.125,47.3852 H 412.492 V 43.7309 H 434.125 C 435.101,43.7309 435.862,43.427 436.412,42.8148 436.959,42.207 437.234,41.473 437.234,40.6199 437.234,39.7648 436.959,39.034 436.412,38.4219 435.862,37.8141 435.1,37.507 434.123,37.507" /><path
       inkscape:connector-curvature="0"
       id="path1467"
       style="fill:#100f0d;fill-opacity:1;fill-rule:nonzero;stroke:none;stroke-width:0.1"
       d="M 502.734,40.6199 C 502.734,38.5449 501.697,37.507 499.624,37.507 H 474.921 C 473.946,37.507 473.19,37.8141 472.657,38.4219 472.123,39.034 471.857,39.7648 471.857,40.6199 471.857,41.473 472.124,42.207 472.657,42.8148 473.192,43.427 473.946,43.7309 474.923,43.7309 H 496.564 V 47.3852 H 474.923 C 472.879,47.3852 471.857,48.423 471.857,50.5012 V 60.3969 C 471.857,62.4738 472.879,63.5109 474.921,63.5109 H 499.624 C 500.598,63.5109 501.362,63.207 501.911,62.5969 502.458,61.9891 502.734,61.2539 502.734,60.4012 502.734,59.5461 502.458,58.8148 501.911,58.2059 501.362,57.5949 500.598,57.2891 499.624,57.2891 H 478.027 V 53.6082 H 499.624 C 501.697,53.6082 502.734,52.573 502.734,50.4988 V 40.6199" /><path
       inkscape:connector-curvature="0"
       id="path1469"
       style="fill:#100f0d;fill-opacity:1;fill-rule:nonzero;stroke:none;stroke-width:0.1"
       d="M 562.86,57.2891 H 553.624 V 40.6281 C 553.624,39.6512 553.32,38.8969 552.71,38.3621 552.102,37.8289 551.369,37.5609 550.517,37.5609 549.694,37.5609 548.977,37.8289 548.369,38.3621 547.758,38.8969 547.454,39.6512 547.454,40.6281 V 57.2891 H 538.151 C 537.172,57.2891 536.41,57.5949 535.86,58.2059 535.308,58.8148 535.035,59.5461 535.035,60.4012 535.035,61.2539 535.308,61.9891 535.858,62.5969 536.408,63.207 537.169,63.5109 538.146,63.5109 H 562.856 C 563.833,63.5109 564.596,63.207 565.145,62.5969 565.692,61.9891 565.967,61.2539 565.967,60.4012 565.967,59.5461 565.693,58.8148 565.145,58.2059 564.597,57.5949 563.834,57.2891 562.86,57.2891" /><path
       inkscape:connector-curvature="0"
       id="path1471"
       style="fill:#100f0d;fill-opacity:1;fill-rule:nonzero;stroke:none;stroke-width:0.1"
       d="M 564.303,114.861 V 78.6289 L 607.501,35.432 V 158.059 L 564.303,114.861" /><path
       inkscape:connector-curvature="0"
       id="path1473"
       style="fill:#100f0d;fill-opacity:1;fill-rule:nonzero;stroke:none;stroke-width:0.1"
       d="M 529.869,99.3113 C 529.869,99.3113 529.869,84.107 529.869,79.084 524.808,79.084 511.325,79.084 506.259,79.084 506.268,85.918 506.358,149.641 506.358,149.641 H 428.483 C 428.483,149.641 428.483,86.2199 428.483,79.3988 422.051,79.3988 372.118,79.3988 365.686,79.3988 365.686,86.2199 365.686,149.641 365.686,149.641 H 287.815 C 287.815,149.641 287.815,86.2199 287.815,79.3988 281.383,79.3988 231.45,79.3988 225.016,79.3988 225.016,86.2199 225.016,149.641 225.016,149.641 H 147.148 C 147.148,149.641 147.148,86.2199 147.148,79.3988 144.591,79.3988 140.397,79.3988 136.905,79.3988 V 71.773 H 154.775 C 154.775,71.773 154.775,135.193 154.775,142.014 161.204,142.014 210.961,142.014 217.39,142.014 217.39,135.193 217.39,71.773 217.39,71.773 H 295.442 C 295.442,71.773 295.442,135.193 295.442,142.014 301.872,142.014 351.628,142.014 358.059,142.014 358.059,135.193 358.059,71.773 358.059,71.773 H 436.111 C 436.111,71.773 436.111,135.193 436.111,142.014 442.539,142.014 492.284,142.014 498.72,142.014 498.711,135.181 498.621,71.4578 498.621,71.4578 H 537.495 C 537.495,71.4578 537.495,86.6641 537.495,91.6852 538.094,91.6852 538.731,91.6852 539.375,91.6852 V 99.3113 H 529.869" /></g></svg>
