<?xml version="1.0" encoding="UTF-8" standalone="no"?>
<!-- Created with Inkscape (http://www.inkscape.org/) -->

<svg
   xmlns:dc="http://purl.org/dc/elements/1.1/"
   xmlns:cc="http://creativecommons.org/ns#"
   xmlns:rdf="http://www.w3.org/1999/02/22-rdf-syntax-ns#"
   xmlns:svg="http://www.w3.org/2000/svg"
   xmlns="http://www.w3.org/2000/svg"
   xmlns:sodipodi="http://sodipodi.sourceforge.net/DTD/sodipodi-0.dtd"
   xmlns:inkscape="http://www.inkscape.org/namespaces/inkscape"
   version="1.1"
   id="svg1423"
   xml:space="preserve"
   width="173.50266"
   height="163.50266"
   viewBox="0 0 173.50265 163.50266"
   sodipodi:docname="MAGFEST_logo_centered_final.svg"
   inkscape:version="0.92.4 (5da689c313, 2019-01-14)"><metadata
     id="metadata1429"><rdf:RDF><cc:Work
         rdf:about=""><dc:format>image/svg+xml</dc:format><dc:type
           rdf:resource="http://purl.org/dc/dcmitype/StillImage" /><dc:title></dc:title></cc:Work></rdf:RDF></metadata><defs
     id="defs1427" /><sodipodi:namedview
     pagecolor="#ffffff"
     bordercolor="#666666"
     borderopacity="1"
     objecttolerance="10"
     gridtolerance="10"
     guidetolerance="10"
     inkscape:pageopacity="0"
     inkscape:pageshadow="2"
     inkscape:window-width="1857"
     inkscape:window-height="1057"
     id="namedview1425"
     showgrid="false"
     inkscape:zoom="1.4488636"
     inkscape:cx="-335.77981"
     inkscape:cy="-0.52875863"
     inkscape:window-x="55"
     inkscape:window-y="-8"
     inkscape:window-maximized="1"
     inkscape:current-layer="g1431"
     fit-margin-top="0"
     fit-margin-left="0"
     fit-margin-right="0"
     fit-margin-bottom="0" /><g
     id="g1431"
     inkscape:groupmode="layer"
     inkscape:label="ink_ext_XXXXXX"
     transform="matrix(1.3333333,0,0,-1.3333333,-722.55598,210.74533)"><path
       inkscape:connector-curvature="0"
       id="path1447"
       style="fill:#100f0d;fill-opacity:1;fill-rule:nonzero;stroke:none;stroke-width:0.1"
       d="M 541.917,114.753 C 541.917,112.456 541.917,81.0359 541.917,78.7391 544.042,78.7391 559.637,78.7391 561.762,78.7391 561.762,81.0359 561.762,112.456 561.762,114.753 559.637,114.753 544.042,114.753 541.917,114.753" /><path
       inkscape:connector-curvature="0"
       id="path1449"
       style="fill:#100f0d;fill-opacity:1;fill-rule:nonzero;stroke:none;stroke-width:0.1"
       d="M 615.289,124.41 C 614.295,123.416 614.295,121.807 615.289,120.815 621.702,114.4 625.092,106.551 625.092,98.1148 625.092,89.4609 621.427,80.6309 615.289,74.491 614.295,73.5 614.295,71.8891 615.289,70.8949 616.279,69.902 617.89,69.902 618.883,70.8949 625.956,77.9672 630.177,88.143 630.177,98.1148 630.177,107.929 626.271,117.022 618.883,124.41 617.89,125.403 616.279,125.403 615.289,124.41" /><path
       inkscape:connector-curvature="0"
       id="path1451"
       style="fill:#100f0d;fill-opacity:1;fill-rule:nonzero;stroke:none;stroke-width:0.1"
       d="M 630.891,135.805 C 629.898,134.813 629.898,133.202 630.891,132.209 652.519,110.579 647.875,80.0828 630.891,63.0969 629.898,62.1031 629.898,60.4949 630.891,59.502 631.883,58.509 633.492,58.509 634.486,59.502 653.238,78.2559 658.366,111.924 634.486,135.804 633.492,136.797 631.882,136.797 630.891,135.805" /><path
       inkscape:connector-curvature="0"
       id="path1453"
       style="fill:#100f0d;fill-opacity:1;fill-rule:nonzero;stroke:none;stroke-width:0.1"
       d="M 645.458,152.082 C 644.465,151.09 644.465,149.48 645.458,148.487 659.525,134.421 666.959,117.18 666.959,98.6262 666.959,79.6488 658.922,60.282 645.458,46.8172 644.465,45.8262 644.465,44.2148 645.458,43.223 646.452,42.2301 648.062,42.2301 649.053,43.223 663.45,57.618 672.044,78.3309 672.044,98.6262 672.044,118.558 664.095,137.042 649.053,152.082 648.062,153.075 646.452,153.075 645.458,152.082" /><path
       inkscape:connector-curvature="0"
       id="path1471"
       style="fill:#100f0d;fill-opacity:1;fill-rule:nonzero;stroke:none;stroke-width:0.1"
       d="M 564.303,114.861 V 78.6289 L 607.501,35.432 V 158.059 L 564.303,114.861" /></g></svg>